<?xml version="1.0" encoding="UTF-8"?>
<svg width="28px" height="28px" viewBox="0 0 28 28" version="1.1" xmlns="http://www.w3.org/2000/svg" xmlns:xlink="http://www.w3.org/1999/xlink">
    <title>2</title>
    <defs>
        <filter x="-40.0%" y="-40.0%" width="180.0%" height="180.0%" filterUnits="objectBoundingBox" id="filter-1">
            <feOffset dx="1" dy="2" in="SourceAlpha" result="shadowOffsetOuter1"></feOffset>
            <feGaussianBlur stdDeviation="1" in="shadowOffsetOuter1" result="shadowBlurOuter1"></feGaussianBlur>
            <feColorMatrix values="0 0 0 0 0   0 0 0 0 0   0 0 0 0 0  0 0 0 0.5 0" type="matrix" in="shadowBlurOuter1" result="shadowMatrixOuter1"></feColorMatrix>
            <feMerge>
                <feMergeNode in="shadowMatrixOuter1"></feMergeNode>
                <feMergeNode in="SourceGraphic"></feMergeNode>
            </feMerge>
        </filter>
    </defs>
    <g id="页面-1" stroke="none" stroke-width="1" fill="none" fill-rule="evenodd">
        <g id="气象站" filter="url(#filter-1)" transform="translate(4.000000, 4.000000)" fill="#5FECFF" fill-rule="nonzero">
            <rect id="矩形" opacity="0" x="0" y="0" width="20" height="20"></rect>
            <path d="M11.1501953,5.99427734 C11.2306039,6.1413825 11.3662108,6.25047366 11.5271255,6.29750496 C11.6880402,6.34453626 11.8610526,6.32564673 12.0080273,6.245 L13.9230273,5.19714844 C14.0704609,5.11686328 14.1798557,4.98117377 14.2270377,4.8200644 C14.2742198,4.65895503 14.2553048,4.4856891 14.1744727,4.33855469 L14.15875,4.31 C13.9907761,4.00422524 13.6068441,3.89233759 13.3008984,4.06 L11.3858984,5.10785156 C11.0800142,5.27531051 10.9675134,5.65884272 11.1344727,5.965 L11.1501758,5.99357422 L11.1501953,5.99427734 Z M8.59375,3.93785156 L8.62519531,3.94714844 C8.96009018,4.04474635 9.31074589,3.85262779 9.40875,3.51785156 L10.0223242,1.42214844 C10.0696169,1.26121319 10.0509323,1.08807425 9.97039295,0.940934274 C9.88985363,0.793794296 9.75407899,0.684746345 9.59302734,0.637851562 L9.56160156,0.628574219 C9.22692929,0.531428634 8.87676245,0.723451665 8.77875,1.05787109 L8.16517578,3.15357422 C8.06705833,3.48848236 8.25889796,3.83954284 8.59375,3.93785156 L8.59375,3.93785156 Z M4.50517578,4.04927734 C4.5854606,4.19651206 4.72101697,4.30576236 4.88194758,4.35293281 C5.0428782,4.40010327 5.21596287,4.3813189 5.36302734,4.30072266 L5.39160156,4.285 C5.6979018,4.11752546 5.81046392,3.73346943 5.64302734,3.42714844 L4.59447266,1.51072266 C4.4265149,1.20536389 4.04310648,1.09353716 3.73732422,1.26072266 L3.70875,1.27642578 C3.40312495,1.44413086 3.29095665,1.82760192 3.45802734,2.13357422 L4.50587891,4.04927734 L4.50517578,4.04927734 Z M3.33517578,6.84142578 L3.34447266,6.81 C3.44203084,6.47488936 3.24954241,6.12412431 2.91447266,6.02642578 L0.81875,5.41357422 C0.483841863,5.31545677 0.132781376,5.5072964 0.0344726563,5.84214844 L0.0258789063,5.87357422 C-0.0726757812,6.20927734 0.119472656,6.55927734 0.454472656,6.65785156 L2.55017578,7.27072266 C2.7113005,7.318255 2.8847184,7.29969944 3.03213882,7.21915305 C3.17955924,7.13860666 3.28885673,7.00269443 3.33589844,6.84142578 L3.33517578,6.84142578 Z M3.68375,10.0435742 C3.51601257,9.73760074 3.13226434,9.62512884 2.82589844,9.79214844 L0.91015625,10.8407227 C0.762940314,10.9210236 0.65366293,11.056528 0.606373523,11.2174145 C0.559084116,11.3783011 0.577658115,11.5513849 0.658007813,11.6985742 L0.673730469,11.7271484 C0.841458264,12.0331823 1.22545131,12.1454024 1.53158203,11.9778516 L3.44730469,10.93 C3.75301179,10.7620098 3.8651421,10.3783243 3.69800781,10.0721484 L3.68373047,10.0435742 L3.68375,10.0435742 Z M15.9216016,10.7521484 L15.9058984,10.7521484 C14.6281793,8.93374184 12.3675083,8.08294072 10.2079319,8.60772479 C8.04835544,9.13250885 6.43022477,10.9258713 6.12947266,13.1278516 C4.60196422,13.5235351 3.60819283,14.9948 3.81150411,16.5595722 C4.0148154,18.1243444 5.3515669,19.2928038 6.92947266,19.285 L14.9016016,19.285 C15.0353885,19.2886338 15.1692361,19.2805101 15.3016016,19.2607227 C15.457023,19.2770391 15.6131972,19.2851429 15.7694727,19.285 C18.0783977,19.2587558 19.947866,17.4011766 19.9888402,15.092466 C20.0298145,12.7837554 18.2274381,10.8610095 15.9208984,10.7528516 L15.9208984,10.7521484 L15.9216016,10.7521484 Z" id="形状"></path>
            <path d="M4.54589844,9.58927734 C4.84460933,10.135652 5.29380562,10.5848551 5.84017578,10.8835742 C6.70583482,8.98508016 8.58814637,7.75551967 10.6744727,7.72572266 C10.5545308,6.40110453 9.6445647,5.28095634 8.37261464,4.89218614 C7.10066458,4.50341594 5.71995237,4.92342072 4.87995314,5.95463386 C4.03995391,6.985847 3.90789605,8.42297293 4.54589844,9.59 L4.54589844,9.58927734 Z" id="路径"></path>
        </g>
    </g>
</svg>