<?xml version="1.0" encoding="UTF-8"?>
<svg width="38px" height="50px" viewBox="0 0 38 50" version="1.1" xmlns="http://www.w3.org/2000/svg" xmlns:xlink="http://www.w3.org/1999/xlink">
    <!-- Generator: Sketch 63 (92445) - https://sketch.com -->
    <title>路径备份 10</title>
    <desc>Created with Sketch.</desc>
    <g id="首页修改4.14" stroke="none" stroke-width="1" fill="none" fill-rule="evenodd">
        <g id="船舶跟踪与轨迹显示1" transform="translate(-1098.000000, -649.000000)">
            <g id="编组" transform="translate(1002.000000, 649.000000)">
                <g id="路径备份-10" transform="translate(96.000000, 0.000000)">
                    <g>
                        <path d="M2,18 C2,23.7162493 5.04958263,28.9982817 10,31.8564064 C14.9504172,34.7145312 21.0495828,34.7145312 26,31.8564064 C30.9504174,28.9982817 34,23.7162493 34,18 C34,9.16344393 26.836556,2 18,2 C9.163444,2 2,9.16344393 2,18 Z" id="路径" fill="#FFFFFF" fill-rule="nonzero"></path>
                        <path d="M34.6686977,29.3324384 C34.7119484,29.2897242 34.7119484,29.253112 34.7490204,29.2042958 L34.792271,29.1615816 C38.6910095,23.4134733 39.0617295,16.0117159 35.7623217,9.90969002 C32.4629138,3.80766414 26.0247435,0 19.0243146,0 C8.52058184,0 9.96680708e-05,8.3719795 9.96680708e-05,18.7454235 C-0.0121563505,22.4554552 1.10618225,26.0861606 3.2069288,29.1615816 L3.25017947,29.2042958 C3.29343013,29.24701 3.29343013,29.2836222 3.33050213,29.3324384 L17.2510374,49.0785941 C17.2510374,49.0907981 17.257216,49.1030022 17.2633947,49.1091042 C17.2695734,49.1152062 17.2819307,49.1213083 17.294288,49.1213083 L17.294288,49.1640225 C17.6897227,49.6948987 18.313768,50 18.9810639,50 C19.6421812,49.993898 20.2662265,49.6887967 20.6678398,49.1640225 L20.7110905,49.0846961 L34.6686977,29.3324384 Z M18.9810639,4.37515255 C26.9886155,4.37515255 33.5380018,10.8433 33.5380018,18.7515255 C33.5380018,26.659751 26.9886155,33.1278985 18.9810639,33.1278985 C10.9735124,33.1278985 4.42412607,26.659751 4.42412607,18.7515255 C4.42412607,10.849402 10.9735124,4.37515255 18.9810639,4.37515255 Z" id="形状" fill="#15AD7E" fill-rule="nonzero"></path>
                        <text id="起" font-family="PingFangSC-Regular, PingFang SC" font-size="18" font-weight="normal" fill="#000000">
                            <tspan x="10" y="25">起</tspan>
                        </text>
                    </g>
                </g>
            </g>
        </g>
    </g>
</svg>