<?xml version="1.0" standalone="no"?><!DOCTYPE svg PUBLIC "-//W3C//DTD SVG 1.1//EN" "http://www.w3.org/Graphics/SVG/1.1/DTD/svg11.dtd"><svg t="1703638850344" class="icon" viewBox="0 0 1024 1024" version="1.1" xmlns="http://www.w3.org/2000/svg" p-id="7389" xmlns:xlink="http://www.w3.org/1999/xlink" width="200" height="200"><path d="M0 0h1024v1024H0z" fill="#FFFFFF" fill-opacity="0" p-id="7390"></path><path d="M704 672c25.152 0 44.992 5.12 75.52 18.752l22.208 10.368 33.92 16.64c28.8 13.568 44.16 18.24 60.352 18.24a32 32 0 1 1 0 64c-25.152 0-44.992-5.12-75.52-18.752l-22.208-10.368-33.92-16.64c-28.8-13.568-44.16-18.24-60.352-18.24s-31.552 4.672-60.352 18.24l-33.92 16.64-22.144 10.368c-30.592 13.632-50.432 18.752-75.584 18.752s-44.992-5.12-75.52-18.752l-22.208-10.368-33.92-16.64c-28.8-13.568-44.16-18.24-60.352-18.24s-31.552 4.672-60.352 18.24l-33.92 16.64-22.144 10.368c-30.592 13.632-50.432 18.752-75.584 18.752a32 32 0 1 1 0-64c16.192 0 31.552-4.672 60.352-18.24l33.92-16.64 22.144-10.368c30.592-13.632 50.432-18.752 75.584-18.752s44.992 5.12 75.52 18.752l22.208 10.368 33.92 16.64c28.8 13.568 44.16 18.24 60.352 18.24s31.552-4.672 60.352-18.24l33.92-16.64 22.144-10.368c30.592-13.632 50.432-18.752 75.584-18.752zM704 512c25.152 0 44.992 5.12 75.52 18.752l22.208 10.368 33.92 16.64c28.8 13.568 44.16 18.24 60.352 18.24a32 32 0 1 1 0 64c-25.152 0-44.992-5.12-75.52-18.752l-22.208-10.368-33.92-16.64C735.552 580.672 720.192 576 704 576s-31.552 4.672-60.352 18.24l-33.92 16.64-22.144 10.368C556.992 634.88 537.152 640 512 640s-44.992-5.12-75.52-18.752l-22.208-10.368-33.92-16.64C351.552 580.672 336.192 576 320 576s-31.552 4.672-60.352 18.24l-33.92 16.64-22.144 10.368C172.992 634.88 153.152 640 128 640a32 32 0 0 1 0-64c16.192 0 31.552-4.672 60.352-18.24l33.92-16.64 22.144-10.368C275.008 517.12 294.848 512 320 512s44.992 5.12 75.52 18.752l22.208 10.368 33.92 16.64c28.8 13.568 44.16 18.24 60.352 18.24s31.552-4.672 60.352-18.24l33.92-16.64 22.144-10.368C659.008 517.12 678.848 512 704 512z m0-160c25.152 0 44.992 5.12 75.52 18.752l22.208 10.368 33.92 16.64c28.8 13.568 44.16 18.24 60.352 18.24a32 32 0 1 1 0 64c-25.152 0-44.992-5.12-75.52-18.752l-22.208-10.368-33.92-16.64c-28.8-13.568-44.16-18.24-60.352-18.24s-31.552 4.672-60.352 18.24l-33.92 16.64-22.144 10.368C556.992 474.88 537.152 480 512 480s-44.992-5.12-75.52-18.752l-22.208-10.368-33.92-16.64C351.552 420.672 336.192 416 320 416s-31.552 4.672-60.352 18.24l-33.92 16.64-22.144 10.368C172.992 474.88 153.152 480 128 480a32 32 0 0 1 0-64c16.192 0 31.552-4.672 60.352-18.24l33.92-16.64 22.144-10.368C275.008 357.12 294.848 352 320 352s44.992 5.12 75.52 18.752l22.208 10.368 33.92 16.64c28.8 13.568 44.16 18.24 60.352 18.24s31.552-4.672 60.352-18.24l33.92-16.64 22.144-10.368c30.592-13.632 50.432-18.752 75.584-18.752zM704 192c25.152 0 44.992 5.12 75.52 18.752l22.208 10.368 33.92 16.64c28.8 13.568 44.16 18.24 60.352 18.24a32 32 0 1 1 0 64c-25.152 0-44.992-5.12-75.52-18.752l-22.208-10.368-33.92-16.64C735.552 260.672 720.192 256 704 256s-31.552 4.672-60.352 18.24l-33.92 16.64-22.144 10.368C556.992 314.88 537.152 320 512 320s-44.992-5.12-75.52-18.752l-22.208-10.368-33.92-16.64C351.552 260.672 336.192 256 320 256s-31.552 4.672-60.352 18.24l-33.92 16.64-22.144 10.368C172.992 314.88 153.152 320 128 320a32 32 0 0 1 0-64c16.192 0 31.552-4.672 60.352-18.24l45.44-22.144C270.72 198.336 292.032 192 320 192c25.152 0 44.992 5.12 75.52 18.752l22.208 10.368 33.92 16.64c28.8 13.568 44.16 18.24 60.352 18.24s31.552-4.672 60.352-18.24l45.44-22.144C654.72 198.336 676.032 192 704 192z" fill="#4074FE" p-id="7391"></path></svg>